<svg xmlns="http://www.w3.org/2000/svg" xmlns:xlink="http://www.w3.org/1999/xlink" version="1.1"  x="0px" y="0px" width="32" height="32" viewBox="0 0 32 32" style="enable-background:new 0 0 32 32;" xml:space="preserve" preserveAspectRatio="none" viewbox="0 0 32 32">
<path d="M11.5,16C9.57,16,8,17.57,8,19.5S9.57,23,11.5,23s3.5-1.57,3.5-3.5S13.43,16,11.5,16z M11.5,22c-1.21,0-2.22-0.86-2.45-2  h4.9C13.72,21.14,12.71,22,11.5,22z M9.05,19c0.23-1.14,1.24-2,2.45-2s2.22,0.86,2.45,2H9.05z M26,17h-1c0-5.17-7.05-5.89-9-5.99  V9.95c1.14-0.23,2-1.24,2-2.45C18,6.12,16.88,5,15.5,5S13,6.12,13,7.5c0,1.21,0.86,2.22,2,2.45v1.06c-1.95,0.1-9,0.82-9,5.99H5  c0,0-2,0-2,2s0,3,0,3s0,2,2,2h1v2c0,0,0,2,2,2h15c2,0,2-2,2-2v-2h1c2,0,2-2,2-2s0-1,0-3S26,17,26,17z M6,23H5c-0.81,0-0.99-0.55-1-1  v-3c0-0.81,0.55-0.99,1-1h1V23z M14,7.5C14,6.67,14.67,6,15.5,6S17,6.67,17,7.5S16.33,9,15.5,9S14,8.33,14,7.5z M24,25.99  C23.99,26.45,23.81,27,23,27H8c-0.81,0-0.99-0.55-1-1v-1h17V25.99z M24,24H7v-7c0-4.92,8.39-5,8.5-5s8.5,0.07,8.5,5V24z M27,21.99  C26.99,22.45,26.81,23,26,23h-1v-5h0.99c0.46,0.01,1.01,0.2,1.01,1V21.99z M19.5,16c-1.93,0-3.5,1.57-3.5,3.5s1.57,3.5,3.5,3.5  s3.5-1.57,3.5-3.5S21.43,16,19.5,16z M19.5,22c-1.21,0-2.22-0.86-2.45-2h4.9C21.72,21.14,20.71,22,19.5,22z M17.05,19  c0.23-1.14,1.24-2,2.45-2s2.22,0.86,2.45,2H17.05z"></path>
</svg>